<svg id="Text" xmlns="http://www.w3.org/2000/svg" xmlns:xlink="http://www.w3.org/1999/xlink" viewBox="708.59 38.5 1435.75 346.5">   <defs>     <style>       .cls-1 {         fill: url(#linear-gradient-2);       }        .cls-2 {         fill: url(#linear-gradient-6);       }        .cls-3 {         fill: url(#linear-gradient-5);       }        .cls-4 {         fill: url(#linear-gradient-3);       }        .cls-5 {         fill: url(#linear-gradient);       }        .cls-6 {         fill: url(#linear-gradient-4);       }     </style>     <linearGradient id="linear-gradient" x1="757.76" y1="359.68" x2="945.27" y2="172.18" gradientUnits="userSpaceOnUse">       <stop offset="0" stop-color="#4157cc"/>       <stop offset=".1" stop-color="#4f65d5"/>       <stop offset=".31" stop-color="#697fe7"/>       <stop offset=".53" stop-color="#7c92f4"/>       <stop offset=".76" stop-color="#889efc"/>       <stop offset="1" stop-color="#8ca2ff"/>     </linearGradient>     <linearGradient id="linear-gradient-2" x1="973.12" y1="306.1" x2="1167.07" y2="112.16" xlink:href="#linear-gradient"/>     <linearGradient id="linear-gradient-3" x1="1150.24" y1="299.3" x2="1321.22" y2="128.32" xlink:href="#linear-gradient"/>     <linearGradient id="linear-gradient-4" x1="1340.17" y1="313.02" x2="1525.08" y2="128.11" xlink:href="#linear-gradient"/>     <linearGradient id="linear-gradient-5" x1="1662.69" y1="346.98" x2="1847.25" y2="162.41" xlink:href="#linear-gradient"/>     <linearGradient id="linear-gradient-6" x1="1926.87" y1="361.35" x2="2139.32" y2="148.91" xlink:href="#linear-gradient"/>   </defs>   <path class="cls-5" d="m860.84,314.83v49.12c0,11.53-9.28,21.03-20.81,21.05-.06,0-.13,0-.19,0-37.5,0-68.75-12.33-93.75-37-25-24.66-37.5-55.58-37.5-92.75s12.62-66.83,37.88-92c25.25-25.16,55.96-37.75,92.12-37.75,40.33,0,72.12,11.79,95.38,35.38,23.25,23.59,34.88,55.79,34.88,96.62v82.25c0,22.09-17.91,40-40,40h-13.5c-22.09,0-40-17.91-40-40v-75.5c0-13.16-3.21-23.66-9.62-31.5-6.42-7.83-15.04-11.75-25.88-11.75-9.84,0-18.34,3.59-25.5,10.75s-10.75,15.67-10.75,25.5c0,10.34,3.25,18.84,9.75,25.5,6.5,6.67,14.75,10,24.75,10,.08,0,.16,0,.24,0,12.36-.07,22.51,9.72,22.51,22.08Z"/>   <path class="cls-1" d="m1116.84,78.5v261.25c0,22.09-17.91,40-40,40h-13.5c-22.09,0-40-17.91-40-40V78.5c0-22.09,17.91-40,40-40h13.5c22.09,0,40,17.91,40,40Z"/>   <path class="cls-4" d="m1254.84,78.5v44.79c0,5.92,4.8,10.71,10.71,10.71h0c17.28,0,31.29,14.01,31.29,31.29v36.55c0,17.07-13.84,30.91-30.91,30.91h0c-6.2,0-11.15,5.25-10.69,11.43,1.02,13.75,4.01,23.61,8.98,29.57,2.58,3.09,6.04,5.55,10.38,7.36,14.67,6.13,23.99,20.75,23.99,36.65v54.98c0,5.94-4.81,10.75-10.75,10.75h0c-21.17,0-41.12-4.91-59.88-14.75-18.75-9.83-33.79-23.16-45.12-40-14.34-21.5-21.5-50-21.5-85.5V78.5c0-22.09,17.91-40,40-40h13.5c22.09,0,40,17.91,40,40Z"/>   <path class="cls-6" d="m1390.84,38.5c22.09,0,40,17.91,40,40v164.25c0,33.17,11.91,49.75,35.75,49.75,10.16,0,18.79-3.46,25.88-10.38,7.08-6.91,10.62-15.29,10.62-25.12s-3.34-18.71-10-25.62c-6.67-6.91-14.84-10.38-24.5-10.38-.07,0-.14,0-.21,0-12.76.11-23.29-9.9-23.29-22.66v-47.88c0-13.73,11.1-24.94,24.83-24.96.06,0,.11,0,.17,0,35.16,0,65.29,12.67,90.38,38,25.08,25.34,37.62,55.84,37.62,91.5s-12.75,67.25-38.25,92.25-56.84,37.5-94,37.5c-18.67,0-36.88-4.09-54.62-12.25s-32.38-19.16-43.88-33c-20-24-30-55.08-30-93.25V78.5c0-22.09,17.91-40,40-40h13.5Z"/>   <path class="cls-3" d="m1757.34,125.25c35.33,0,65.62,12.71,90.88,38.12,21.41,21.55,33.74,46.72,37,75.51,5.15,45.52-13.96,90.71-50.04,118.94-22.95,17.95-49.64,26.93-80.08,26.93-36.17,0-67.09-12.71-92.75-38.12-25.67-25.41-38.5-56.04-38.5-91.88s12.83-67.21,38.5-92.12c25.66-24.91,57.33-37.38,95-37.38Zm-2.5,92.25c-10,0-18.5,3.62-25.5,10.88s-10.5,16.12-10.5,26.62,3.54,19.17,10.62,26.5c7.08,7.34,15.54,11,25.38,11s18.54-3.66,25.62-11c7.08-7.33,10.62-16.16,10.62-26.5s-3.5-19.38-10.5-26.62-15.59-10.88-25.75-10.88Z"/>   <path class="cls-2" d="m2090.84,130.5h13.5c22.09,0,40,17.91,40,40v14.75c0,15.67-2.29,28.29-6.88,37.88-4.24,8.87-11.3,16.77-21.17,23.71-1.16.82-1.17,2.54-.02,3.36,10.04,7.21,17.14,15.06,21.31,23.55,4.5,9.17,6.75,21.17,6.75,36v30c0,22.09-17.91,40-40,40h-13.5c-22.09,0-40-17.91-40-40v-35.25c0-17.16-6-25.75-18-25.75s-17.5,7.42-17.5,22.25v38.75c0,22.09-17.91,40-40,40h-13.5c-22.09,0-40-17.91-40-40v-26.5c0-15.33,2.79-27.83,8.38-37.5,5.22-9.03,14.03-17.55,26.45-25.57,1.24-.8,1.26-2.61.04-3.43-12.44-8.48-21.27-17.4-26.49-26.75-5.59-10-8.38-22.75-8.38-38.25v-11.25c0-22.09,17.91-40,40-40h13.5c22.09,0,40,17.91,40,40v23c0,6.5,1.66,11.84,5,16,3.33,4.17,7.58,6.25,12.75,6.25,11.83,0,17.75-7.41,17.75-22.25v-23c0-22.09,17.91-40,40-40Z"/> </svg>