<?xml version="1.0" encoding="UTF-8"?>
<svg id="Layer_1" data-name="Layer 1" xmlns="http://www.w3.org/2000/svg" viewBox="0 0 518.22 459.23">
  <defs>
    <style>
      .cls-1 {
        fill: #fff;
      }

      .cls-2 {
        fill: #f6f6f6;
      }

      .cls-3 {
        fill: #4157cc;
      }

      .cls-4 {
        fill: #8ca2ff;
      }

      .cls-5 {
        fill: #dadada;
      }

      .cls-6 {
        fill: #878787;
      }

      .cls-7 {
        fill: #7589ff;
      }
    </style>
  </defs>
  <path class="cls-7" d="m.27,229.96c-1.26-7.31,2.11-13.46,5.18-19.57,5.58-11.11,12.52-21.47,18.65-32.25,7.04-12.4,14.19-24.75,21.15-37.2,7.1-12.71,15.23-24.86,21.94-37.76,6.98-13.43,15.49-25.93,22.63-39.25,6.88-12.82,14.82-25.08,21.68-37.91,4.28-8.01,9.4-15.02,17.05-19.91C134.44,2.33,141,.04,148.06.04,222.32-.02,296.58,0,370.84.02c6.23,0,11.93,1.99,17.24,5.16-.32.93-.5,1.94-.99,2.78-11.42,19.69-22.93,39.32-34.31,59.03-9.82,17.01-19.46,34.13-29.29,51.14-2.47,4.27-4.93,8.5-6.33,13.27-.68-.11-1.35-.22-2.03-.34-13.28-.12-26.57-.31-39.85-.35-22.28-.06-44.56,0-66.84-.03-5.36,0-5.57-.38-3.02-5.24,2.21-4.21,5.28-8,7.34-12.17,4.73-9.55,10.4-18.55,15.6-27.81,9.71-17.3,19.86-34.34,29.82-51.5,1.44-1.56.93-2.15-1.01-2.03-35.66-.04-71.31.01-106.97-.26-4.59-.03-6.75,1.9-8.71,5.48-5.51,10.04-11.12,20.04-16.93,29.92-11.55,19.65-23.13,39.28-34.18,59.23-2.28,4.11-.91,4.62,2.98,4.59,19.99-.11,39.99-.05,59.98-.05,14.5,0,28.99.02,43.49-.02,3.07,0,5.46-.43,2.59,3.99-5.09,7.85-9.55,16.12-14.21,24.25-9.06,15.82-18.08,31.65-27.09,47.49-4.04,7.09-8.01,14.22-12.01,21.34-.37.7-.75,1.4-1.12,2.09-48.24-.02-96.47-.03-144.71-.05Z"/>
  <path class="cls-4" d="m317.16,131.41c1.4-4.76,3.86-9,6.33-13.27,9.83-17.01,19.46-34.13,29.29-51.14,11.38-19.71,22.89-39.35,34.31-59.03.49-.84.67-1.85.99-2.78,10.8,4.51,15.21,14.57,20.6,23.77,7.99,13.64,16.08,27.23,23.92,40.96,10.46,18.3,20.3,36.97,31.19,55,14.74,24.38,27.93,49.65,43.13,73.75,6.2,9.83,11.5,19.95,11.28,32.24-.19,10.88-5.69,19.44-10.77,28.27-9.34,16.23-18.87,32.36-28.24,48.57-12.03,20.81-23.99,41.67-35.97,62.52-7.13,12.41-14.17,24.87-21.35,37.25-6.85,11.82-13.65,23.68-20.81,35.32-3.03,4.92-7.32,8.85-12.77,11.24-.89-1.96-1.61-4.01-2.68-5.87-10.63-18.43-21.25-36.86-32.02-55.21-5.61-9.57-10.34-19.69-16.29-28.99-7.37-11.51-13.63-23.57-20.17-35.51,1.97-6.18,5.95-11.32,9.05-16.89,8.56-15.38,17.57-30.5,26.4-45.73,6.19-10.68,12.33-21.39,18.62-32,.72-1.21,1.7-4.66,3.86-.93,9.01,15.54,18.1,31.04,26.96,46.67,8.59,15.15,17.99,29.84,25.99,45.33,1.32,2.55,3.05,3.76,5.09.11,9.71-17.34,19.53-34.61,29.39-51.86,7.51-13.15,14.69-26.53,22.94-39.21,2.68-4.13,1.77-6.4-.3-9.43-8.18-11.94-14.69-24.91-21.57-37.54-9.7-17.81-21.49-34.38-30.37-52.62-1.69-3.46-3.41-3.08-5.11-.06-3.01,5.33-5.91,10.73-8.98,16.03-9.96,17.24-19.96,34.46-29.97,51.67-4.62,7.94-9.32,15.83-13.93,23.77-1.25,2.15-2.18,2.77-3.63.08-2.11-3.91-4.51-7.66-6.74-11.51-8.74-15.12-17.47-30.25-26.18-45.39-7.19-12.51-14.35-25.05-21.52-37.57Z"/>
  <path class="cls-3" d="m317.15,328.48c6.54,11.94,12.8,24,20.17,35.51,5.95,9.3,10.68,19.42,16.29,28.99,10.76,18.35,21.38,36.78,32.02,55.21,1.07,1.85,1.8,3.91,2.68,5.87-5.86,3.68-12.22,5.17-19.16,5.16-73.12-.07-146.25-.06-219.37-.04-17.55,0-29.12-9.16-37.36-23.81-7.85-13.96-15.89-27.8-23.88-41.68-4.62-8.02-9.6-15.85-13.87-24.05-6.66-12.79-15.22-24.5-21.44-37.47-4.92-10.25-10.98-19.84-16.68-29.55-7.51-12.77-15.34-25.4-22.42-38.41-4.17-7.67-10.28-14.36-12.34-23.14-.86-3.65-2.16-7.26-1.52-11.12,48.24.02,96.47.03,144.71.05,5.07,8.79,10.15,17.57,15.21,26.36,9.41,16.35,18.77,32.72,28.22,49.04,4.43,7.66,9.02,15.23,13.54,22.84,0,0,.03-.04.03-.04-2.16.11-4.31.31-6.47.31-33.97.02-67.93.01-101.9.03-5.16,0-5.65.7-3.07,5.21,8.14,14.22,16.42,28.37,24.65,42.55,8.9,15.32,18.06,30.5,26.56,46.04,2.21,4.05,4.49,5.34,8.82,5.32,32.14-.14,64.27-.08,96.41-.07,2.5,0,5-.1,7.49.03,4.36.23,4.97-1.33,2.66-4.83-3.72-5.63-6.74-11.69-10.2-17.47-14.87-24.77-29.31-49.79-43.17-75.13.13-.45.26-.9.4-1.35,35.22-.05,70.43-.08,105.65-.16,1.79,0,3.65.51,5.36-.48.66.1,1.32.2,1.98.3Z"/>
  <path class="cls-1" d="m317.15,328.48c-.66-.1-1.32-.2-1.98-.3.12-1.43-.61-2.58-1.27-3.72-9.55-16.47-19.12-32.92-28.66-49.4-8.71-15.04-17.38-30.11-26.07-45.16.08-1.57.93-2.81,1.69-4.1,6.8-11.5,13.77-22.91,20.34-34.55,10.28-18.22,20.26-36.6,31.36-54.35,1.07-1.72,4-2.91,2.57-5.82.68.11,1.35.22,2.03.34,7.17,12.53,14.32,25.06,21.52,37.57,8.71,15.14,17.44,30.27,26.18,45.39,2.22,3.85,4.63,7.6,6.74,11.51,1.45,2.69,2.38,2.07,3.63-.08,4.61-7.94,9.31-15.83,13.93-23.77,10.01-17.21,20.01-34.43,29.97-51.67,3.06-5.3,5.97-10.7,8.98-16.03,1.7-3.02,3.42-3.41,5.11.06,8.88,18.24,20.68,34.81,30.37,52.62,6.87,12.63,13.38,25.6,21.57,37.54,2.07,3.02,2.99,5.3.3,9.43-8.24,12.68-15.43,26.05-22.94,39.21-9.85,17.26-19.68,34.53-29.39,51.86-2.05,3.65-3.77,2.44-5.09-.11-8-15.49-17.41-30.17-25.99-45.33-8.86-15.63-17.94-31.13-26.96-46.67-2.17-3.73-3.15-.28-3.86.93-6.29,10.62-12.43,21.33-18.62,32-8.83,15.23-17.84,30.35-26.4,45.73-3.1,5.57-7.08,10.71-9.05,16.89Z"/>
  <path class="cls-2" d="m315.13,131.07c1.43,2.91-1.5,4.1-2.57,5.82-11.09,17.75-21.07,36.14-31.36,54.35-6.57,11.64-13.54,23.04-20.34,34.55-.76,1.29-1.61,2.53-1.69,4.1-35.76.01-71.53.01-107.29.06-2.24,0-4.31-.03-5.77-2.04,4-7.11,7.97-14.24,12.01-21.34,9.01-15.84,18.04-31.68,27.09-47.49,4.66-8.13,9.11-16.4,14.21-24.25,2.87-4.43.48-4-2.59-3.99-14.5.04-28.99.02-43.49.02-19.99,0-39.99-.06-59.98.05-3.89.02-5.26-.48-2.98-4.59,11.05-19.94,22.63-39.57,34.18-59.23,5.81-9.88,11.41-19.88,16.93-29.92,1.97-3.59,4.12-5.52,8.71-5.48,35.65.27,71.31.21,106.97.26.02.83.2,1.59,1.01,2.03-9.96,17.15-20.11,34.2-29.82,51.5-5.2,9.26-10.87,18.26-15.6,27.81-2.07,4.17-5.13,7.96-7.34,12.17-2.55,4.86-2.34,5.24,3.02,5.24,22.28.02,44.56-.03,66.84.03,13.28.03,26.57.23,39.85.35Z"/>
  <path class="cls-5" d="m146.11,227.92c1.46,2.01,3.54,2.04,5.77,2.04,35.76-.05,71.53-.05,107.29-.06,8.69,15.06,17.36,30.12,26.07,45.16,9.54,16.48,19.12,32.93,28.66,49.4.66,1.14,1.39,2.29,1.27,3.72-1.71.99-3.58.48-5.36.48-35.22.08-70.43.12-105.65.16-.57-.84-1.41-.6-2.21-.57-4.52-7.61-9.1-15.18-13.54-22.84-9.45-16.32-18.81-32.7-28.22-49.04-5.06-8.79-10.14-17.57-15.21-26.36.37-.7.75-1.4,1.12-2.09Z"/>
  <path class="cls-5" d="m258.17,33.97c-.81-.44-.99-1.19-1.01-2.03,1.94-.13,2.45.46,1.01,2.03Z"/>
  <path class="cls-5" d="m203.76,330.18c13.86,25.35,28.3,50.36,43.17,75.13,3.46,5.77,6.48,11.83,10.2,17.47,2.31,3.5,1.7,5.06-2.66,4.83-2.49-.13-4.99-.03-7.49-.03-32.14,0-64.27-.06-96.41.07-4.33.02-6.61-1.28-8.82-5.32-8.5-15.54-17.66-30.72-26.56-46.04-8.24-14.17-16.51-28.32-24.65-42.55-2.58-4.51-2.09-5.21,3.07-5.21,33.97-.02,67.93,0,101.9-.03,2.16,0,4.31-.2,6.47-.31.59.66,1.19,1.31,1.78,1.97Z"/>
  <path class="cls-6" d="m203.76,330.18c-.59-.66-1.19-1.32-1.78-1.97,0,0-.03.04-.03.04.79-.03,1.64-.27,2.21.57-.13.45-.26.9-.4,1.35Z"/>
</svg>