<?xml version="1.0" encoding="UTF-8"?>
<svg id="Layer_1" data-name="Layer 1" xmlns="http://www.w3.org/2000/svg" viewBox="0 0 810 810">
  <defs>
    <style>
      .cls-1 {
        fill: none;
        stroke: #4cb7c0;
        stroke-miterlimit: 10;
        stroke-width: 60px;
      }

      .cls-2 {
        fill: #49d8b2;
      }
    </style>
  </defs>
  <rect class="cls-1" x="30" y="30" width="750" height="750" rx="90.3" ry="90.3"/>
  <g>
    <path class="cls-2" d="m86.25,197.39h38.51c17.25,0,32.65,10.83,38.47,27.07l83.93,233.85,83.93-233.85c5.83-16.24,21.22-27.07,38.47-27.07h96.69l-156.95,389.62c-6.23,15.47-21.24,25.6-37.92,25.6h-50.81c-16.68,0-31.68-10.13-37.92-25.6L48.33,253.54c-10.82-26.86,8.95-56.15,37.92-56.15Z"/>
    <path class="cls-2" d="m450.75,197.39h73.38c22.58,0,40.88,18.3,40.88,40.88v271.28h158.78c22.58,0,40.88,18.3,40.88,40.88v18.37c0,22.58-18.3,40.88-40.88,40.88h-232.17c-22.58,0-40.88-18.3-40.88-40.88V197.39Z"/>
  </g>
</svg>